<svg xmlns="http://www.w3.org/2000/svg" xmlns:xlink="http://www.w3.org/1999/xlink" width="250" zoomAndPan="magnify" viewBox="0 0 187.5 37.5" height="50" preserveAspectRatio="xMidYMid meet" version="1.0"><defs><g/><clipPath id="7992796b9b"><path d="M 135.847656 14.589844 L 153.613281 14.589844 L 153.613281 23.472656 L 135.847656 23.472656 Z M 135.847656 14.589844 " clip-rule="nonzero"/></clipPath><clipPath id="b129fa6fa7"><path d="M 20.796875 0.636719 L 56.324219 0.636719 L 56.324219 36.164062 L 20.796875 36.164062 Z M 20.796875 0.636719 " clip-rule="nonzero"/></clipPath><clipPath id="bdf4161cfb"><path d="M 28.195312 0.636719 L 49.121094 0.636719 C 53.207031 0.636719 56.519531 3.949219 56.519531 8.035156 L 56.519531 28.960938 C 56.519531 33.046875 53.207031 36.359375 49.121094 36.359375 L 28.195312 36.359375 C 24.109375 36.359375 20.796875 33.046875 20.796875 28.960938 L 20.796875 8.035156 C 20.796875 3.949219 24.109375 0.636719 28.195312 0.636719 Z M 28.195312 0.636719 " clip-rule="nonzero"/></clipPath><clipPath id="48c402f1ac"><path d="M 27.445312 7.1875 L 37.804688 7.1875 L 37.804688 17.550781 L 27.445312 17.550781 Z M 27.445312 7.1875 " clip-rule="nonzero"/></clipPath><clipPath id="521ba1b1ac"><path d="M 30.402344 7.1875 L 34.871094 7.1875 C 36.503906 7.1875 37.828125 8.511719 37.828125 10.144531 L 37.828125 14.617188 C 37.828125 16.25 36.503906 17.574219 34.871094 17.574219 L 30.402344 17.574219 C 28.769531 17.574219 27.445312 16.25 27.445312 14.617188 L 27.445312 10.144531 C 27.445312 8.511719 28.769531 7.1875 30.402344 7.1875 Z M 30.402344 7.1875 " clip-rule="nonzero"/></clipPath><clipPath id="c89c74f359"><path d="M 39.90625 7.1875 L 50.265625 7.1875 L 50.265625 17.550781 L 39.90625 17.550781 Z M 39.90625 7.1875 " clip-rule="nonzero"/></clipPath><clipPath id="055f791ccc"><path d="M 45.097656 7.1875 C 42.230469 7.1875 39.90625 9.511719 39.90625 12.378906 C 39.90625 15.25 42.230469 17.574219 45.097656 17.574219 C 47.964844 17.574219 50.289062 15.25 50.289062 12.378906 C 50.289062 9.511719 47.964844 7.1875 45.097656 7.1875 Z M 45.097656 7.1875 " clip-rule="nonzero"/></clipPath><clipPath id="cf60708c1d"><path d="M 27.207031 19.667969 L 38 19.667969 L 38 29.363281 L 27.207031 29.363281 Z M 27.207031 19.667969 " clip-rule="nonzero"/></clipPath><clipPath id="6748c2c525"><path d="M 33.738281 20.429688 L 37.742188 27.433594 C 37.96875 27.832031 37.96875 28.324219 37.738281 28.71875 C 37.507812 29.117188 37.082031 29.363281 36.625 29.363281 L 28.652344 29.363281 C 28.191406 29.363281 27.769531 29.117188 27.539062 28.71875 C 27.308594 28.324219 27.304688 27.832031 27.535156 27.433594 L 31.535156 20.429688 C 31.761719 20.035156 32.183594 19.792969 32.636719 19.792969 C 33.09375 19.792969 33.511719 20.035156 33.738281 20.429688 Z M 33.738281 20.429688 " clip-rule="nonzero"/></clipPath><clipPath id="174dcc4ab9"><path d="M 29 9 L 61 9 L 61 37.007812 L 29 37.007812 Z M 29 9 " clip-rule="nonzero"/></clipPath><clipPath id="afc97cc25b"><path d="M 63 22 L 157 22 L 157 35.6875 L 63 35.6875 Z M 63 22 " clip-rule="nonzero"/></clipPath><clipPath id="e0b08ec2f2"><path d="M 150 25 L 159.855469 25 L 159.855469 35 L 150 35 Z M 150 25 " clip-rule="nonzero"/></clipPath></defs><g clip-path="url(#7992796b9b)"><path fill="#ffffff" d="M 137.535156 19.011719 C 137.535156 17.5 138.765625 16.269531 140.277344 16.269531 L 143.816406 16.269531 L 143.816406 14.589844 L 140.277344 14.589844 C 137.835938 14.589844 135.855469 16.570312 135.855469 19.011719 C 135.855469 21.453125 137.835938 23.4375 140.277344 23.4375 L 143.816406 23.4375 L 143.816406 21.753906 L 140.277344 21.753906 C 138.765625 21.753906 137.535156 20.527344 137.535156 19.011719 Z M 141.164062 19.898438 L 148.238281 19.898438 L 148.238281 18.128906 L 141.164062 18.128906 Z M 149.125 14.589844 L 145.585938 14.589844 L 145.585938 16.269531 L 149.125 16.269531 C 150.636719 16.269531 151.867188 17.5 151.867188 19.011719 C 151.867188 20.527344 150.636719 21.753906 149.125 21.753906 L 145.585938 21.753906 L 145.585938 23.4375 L 149.125 23.4375 C 151.566406 23.4375 153.546875 21.453125 153.546875 19.011719 C 153.546875 16.570312 151.566406 14.589844 149.125 14.589844 Z M 149.125 14.589844 " fill-opacity="1" fill-rule="nonzero"/></g><g fill="#7447e1" fill-opacity="1"><g transform="translate(123.492268, 23.500049)"><g><path d="M 1.53125 -1.015625 C 0.757812 -1.867188 0.375 -2.910156 0.375 -4.140625 C 0.375 -5.378906 0.757812 -6.425781 1.53125 -7.28125 C 2.3125 -8.132812 3.304688 -8.5625 4.515625 -8.5625 C 5.609375 -8.5625 6.515625 -8.21875 7.234375 -7.53125 L 7.234375 -13.953125 L 10.109375 -13.953125 L 10.109375 0 L 7.265625 0 L 7.265625 -0.9375 L 7.234375 -0.9375 C 6.515625 -0.144531 5.609375 0.25 4.515625 0.25 C 3.304688 0.25 2.3125 -0.171875 1.53125 -1.015625 Z M 3.984375 -5.5625 C 3.609375 -5.195312 3.421875 -4.726562 3.421875 -4.15625 C 3.421875 -3.582031 3.597656 -3.113281 3.953125 -2.75 C 4.316406 -2.382812 4.789062 -2.203125 5.375 -2.203125 C 5.9375 -2.203125 6.394531 -2.382812 6.75 -2.75 C 7.113281 -3.125 7.296875 -3.59375 7.296875 -4.15625 C 7.296875 -4.726562 7.109375 -5.195312 6.734375 -5.5625 C 6.359375 -5.925781 5.90625 -6.109375 5.375 -6.109375 C 4.820312 -6.109375 4.359375 -5.925781 3.984375 -5.5625 Z M 3.984375 -5.5625 "/></g></g></g><g fill="#7447e1" fill-opacity="1"><g transform="translate(153.818152, 23.500049)"><g><path d="M 3.078125 -8.3125 L 5.109375 -3.796875 L 7.140625 -8.3125 L 10.546875 -8.3125 L 6.078125 0 L 4.140625 0 L -0.328125 -8.3125 Z M 3.078125 -8.3125 "/></g></g></g><g fill="#ffffff" fill-opacity="1"><g transform="translate(60.749874, 23.500049)"><g><path d="M 11.234375 0 L 9.09375 -7.515625 L 6.953125 0 L 3.5625 0 L -0.25 -13.375 L 3.140625 -13.375 L 5.4375 -4.203125 L 5.515625 -4.203125 L 7.953125 -13.375 L 10.25 -13.375 L 12.6875 -4.203125 L 12.765625 -4.203125 L 15.046875 -13.375 L 18.421875 -13.375 L 14.609375 0 Z M 11.234375 0 "/></g></g></g><g fill="#ffffff" fill-opacity="1"><g transform="translate(78.92699, 23.500049)"><g><path d="M 9.390625 -3.765625 L 3.359375 -3.765625 C 3.359375 -3.179688 3.546875 -2.75 3.921875 -2.46875 C 4.304688 -2.1875 4.71875 -2.046875 5.15625 -2.046875 C 5.625 -2.046875 5.992188 -2.109375 6.265625 -2.234375 C 6.535156 -2.359375 6.84375 -2.601562 7.1875 -2.96875 L 9.265625 -1.9375 C 8.398438 -0.476562 6.960938 0.25 4.953125 0.25 C 3.691406 0.25 2.613281 -0.175781 1.71875 -1.03125 C 0.820312 -1.894531 0.375 -2.929688 0.375 -4.140625 C 0.375 -5.359375 0.820312 -6.398438 1.71875 -7.265625 C 2.613281 -8.128906 3.691406 -8.5625 4.953125 -8.5625 C 6.265625 -8.5625 7.332031 -8.179688 8.15625 -7.421875 C 8.988281 -6.660156 9.40625 -5.570312 9.40625 -4.15625 C 9.40625 -3.957031 9.398438 -3.828125 9.390625 -3.765625 Z M 3.4375 -5.359375 L 6.59375 -5.359375 C 6.53125 -5.785156 6.359375 -6.113281 6.078125 -6.34375 C 5.804688 -6.582031 5.457031 -6.703125 5.03125 -6.703125 C 4.550781 -6.703125 4.171875 -6.578125 3.890625 -6.328125 C 3.609375 -6.078125 3.457031 -5.753906 3.4375 -5.359375 Z M 3.4375 -5.359375 "/></g></g></g><g fill="#ffffff" fill-opacity="1"><g transform="translate(88.704689, 23.500049)"><g><path d="M 4.59375 -8.5625 C 5.0625 -8.5625 5.53125 -8.503906 6 -8.390625 C 6.46875 -8.285156 6.8125 -8.179688 7.03125 -8.078125 L 7.375 -7.921875 L 6.4375 -6.03125 C 5.789062 -6.375 5.175781 -6.546875 4.59375 -6.546875 C 4.269531 -6.546875 4.039062 -6.507812 3.90625 -6.4375 C 3.769531 -6.375 3.703125 -6.242188 3.703125 -6.046875 C 3.703125 -6.003906 3.707031 -5.960938 3.71875 -5.921875 C 3.726562 -5.878906 3.75 -5.835938 3.78125 -5.796875 C 3.8125 -5.753906 3.835938 -5.71875 3.859375 -5.6875 C 3.890625 -5.664062 3.9375 -5.640625 4 -5.609375 C 4.070312 -5.578125 4.125 -5.550781 4.15625 -5.53125 C 4.195312 -5.519531 4.257812 -5.5 4.34375 -5.46875 C 4.425781 -5.4375 4.488281 -5.410156 4.53125 -5.390625 C 4.582031 -5.378906 4.660156 -5.351562 4.765625 -5.3125 C 4.867188 -5.28125 4.945312 -5.257812 5 -5.25 C 5.332031 -5.15625 5.625 -5.046875 5.875 -4.921875 C 6.125 -4.804688 6.382812 -4.644531 6.65625 -4.4375 C 6.9375 -4.238281 7.148438 -3.976562 7.296875 -3.65625 C 7.453125 -3.34375 7.53125 -2.988281 7.53125 -2.59375 C 7.53125 -0.695312 6.210938 0.25 3.578125 0.25 C 2.984375 0.25 2.421875 0.15625 1.890625 -0.03125 C 1.359375 -0.21875 0.972656 -0.398438 0.734375 -0.578125 L 0.375 -0.875 L 1.546875 -2.84375 C 1.628906 -2.757812 1.738281 -2.664062 1.875 -2.5625 C 2.019531 -2.46875 2.273438 -2.328125 2.640625 -2.140625 C 3.003906 -1.960938 3.320312 -1.875 3.59375 -1.875 C 4.195312 -1.875 4.5 -2.078125 4.5 -2.484375 C 4.5 -2.660156 4.421875 -2.800781 4.265625 -2.90625 C 4.109375 -3.007812 3.847656 -3.125 3.484375 -3.25 C 3.128906 -3.382812 2.847656 -3.503906 2.640625 -3.609375 C 2.117188 -3.878906 1.707031 -4.1875 1.40625 -4.53125 C 1.101562 -4.875 0.953125 -5.328125 0.953125 -5.890625 C 0.953125 -6.734375 1.28125 -7.390625 1.9375 -7.859375 C 2.59375 -8.328125 3.476562 -8.5625 4.59375 -8.5625 Z M 4.59375 -8.5625 "/></g></g></g><g fill="#ffffff" fill-opacity="1"><g transform="translate(96.682514, 23.500049)"><g><path d="M 0.96875 0 L 0.96875 -13.953125 L 3.84375 -13.953125 L 3.84375 0 Z M 0.96875 0 "/></g></g></g><g fill="#ffffff" fill-opacity="1"><g transform="translate(101.498394, 23.500049)"><g><path d="M 9.390625 -3.765625 L 3.359375 -3.765625 C 3.359375 -3.179688 3.546875 -2.75 3.921875 -2.46875 C 4.304688 -2.1875 4.71875 -2.046875 5.15625 -2.046875 C 5.625 -2.046875 5.992188 -2.109375 6.265625 -2.234375 C 6.535156 -2.359375 6.84375 -2.601562 7.1875 -2.96875 L 9.265625 -1.9375 C 8.398438 -0.476562 6.960938 0.25 4.953125 0.25 C 3.691406 0.25 2.613281 -0.175781 1.71875 -1.03125 C 0.820312 -1.894531 0.375 -2.929688 0.375 -4.140625 C 0.375 -5.359375 0.820312 -6.398438 1.71875 -7.265625 C 2.613281 -8.128906 3.691406 -8.5625 4.953125 -8.5625 C 6.265625 -8.5625 7.332031 -8.179688 8.15625 -7.421875 C 8.988281 -6.660156 9.40625 -5.570312 9.40625 -4.15625 C 9.40625 -3.957031 9.398438 -3.828125 9.390625 -3.765625 Z M 3.4375 -5.359375 L 6.59375 -5.359375 C 6.53125 -5.785156 6.359375 -6.113281 6.078125 -6.34375 C 5.804688 -6.582031 5.457031 -6.703125 5.03125 -6.703125 C 4.550781 -6.703125 4.171875 -6.578125 3.890625 -6.328125 C 3.609375 -6.078125 3.457031 -5.753906 3.4375 -5.359375 Z M 3.4375 -5.359375 "/></g></g></g><g fill="#ffffff" fill-opacity="1"><g transform="translate(111.276093, 23.500049)"><g><path d="M 7.28125 -8.3125 L 10.59375 -8.3125 L 4.046875 4.21875 L 0.75 4.21875 L 3.609375 -1.296875 L -0.328125 -8.3125 L 2.984375 -8.3125 L 5.296875 -4.046875 Z M 7.28125 -8.3125 "/></g></g></g><g clip-path="url(#b129fa6fa7)"><g clip-path="url(#bdf4161cfb)"><path stroke-linecap="butt" transform="matrix(0.740132, 0, 0, 0.740132, 20.796027, 0.636218)" fill="none" stroke-linejoin="miter" d="M 9.997257 0.000676864 L 38.270313 0.000676864 C 43.790869 0.000676864 48.266425 4.476233 48.266425 9.996788 L 48.266425 38.269845 C 48.266425 43.790401 43.790869 48.265957 38.270313 48.265957 L 9.997257 48.265957 C 4.476701 48.265957 0.00114515 43.790401 0.00114515 38.269845 L 0.00114515 9.996788 C 0.00114515 4.476233 4.476701 0.000676864 9.997257 0.000676864 Z M 9.997257 0.000676864 " stroke="#7447e1" stroke-width="8" stroke-opacity="1" stroke-miterlimit="4"/></g></g><g clip-path="url(#48c402f1ac)"><g clip-path="url(#521ba1b1ac)"><path stroke-linecap="butt" transform="matrix(0.740132, 0, 0, 0.740132, 27.444326, 7.188319)" fill="none" stroke-linejoin="miter" d="M 3.996611 -0.00110646 L 10.034389 -0.00110646 C 12.2405 -0.00110646 14.029667 1.78806 14.029667 3.994171 L 14.029667 10.037227 C 14.029667 12.243338 12.2405 14.032505 10.034389 14.032505 L 3.996611 14.032505 C 1.7905 14.032505 0.0013329 12.243338 0.0013329 10.037227 L 0.0013329 3.994171 C 0.0013329 1.78806 1.7905 -0.00110646 3.996611 -0.00110646 Z M 3.996611 -0.00110646 " stroke="#7447e1" stroke-width="6" stroke-opacity="1" stroke-miterlimit="4"/></g></g><g clip-path="url(#c89c74f359)"><g clip-path="url(#055f791ccc)"><path stroke-linecap="butt" transform="matrix(0.740132, 0, 0, 0.740132, 39.905308, 7.188319)" fill="none" stroke-linejoin="miter" d="M 7.01544 -0.00110646 C 3.141551 -0.00110646 0.00127288 3.139171 0.00127288 7.013061 C 0.00127288 10.892227 3.141551 14.032505 7.01544 14.032505 C 10.889329 14.032505 14.029607 10.892227 14.029607 7.013061 C 14.029607 3.139171 10.889329 -0.00110646 7.01544 -0.00110646 Z M 7.01544 -0.00110646 " stroke="#7447e1" stroke-width="6" stroke-opacity="1" stroke-miterlimit="4"/></g></g><g clip-path="url(#cf60708c1d)"><g clip-path="url(#6748c2c525)"><path stroke-linecap="butt" transform="matrix(0.740132, 0, 0, 0.740132, 26.433269, 18.504013)" fill="none" stroke-linejoin="miter" d="M 9.869883 2.601801 L 15.279606 12.064857 C 15.585717 12.60319 15.585717 13.26819 15.274328 13.801246 C 14.962939 14.339579 14.387661 14.672079 13.770161 14.672079 L 2.998216 14.672079 C 2.375438 14.672079 1.805438 14.339579 1.494049 13.801246 C 1.182661 13.26819 1.177383 12.60319 1.488772 12.064857 L 6.893216 2.601801 C 7.199328 2.068745 7.769328 1.741523 8.38155 1.741523 C 8.99905 1.741523 9.563772 2.068745 9.869883 2.601801 Z M 9.869883 2.601801 " stroke="#7447e1" stroke-width="6" stroke-opacity="1" stroke-miterlimit="4"/></g></g><g clip-path="url(#174dcc4ab9)"><path stroke-linecap="round" transform="matrix(0.176476, -0.176476, 0.176476, 0.176476, 39.755612, 28.389322)" fill="none" stroke-linejoin="miter" d="M 3.99786 4.005242 L 48.59932 4.005242 " stroke="#7447e1" stroke-width="8" stroke-opacity="1" stroke-miterlimit="4"/><path stroke-linecap="round" transform="matrix(-0.176476, -0.176476, 0.176476, -0.176476, 49.037158, 29.801137)" fill="none" stroke-linejoin="miter" d="M 3.99093 4.001722 L 48.603457 3.990655 " stroke="#7447e1" stroke-width="8" stroke-opacity="1" stroke-miterlimit="4"/></g><g clip-path="url(#afc97cc25b)"><path fill="#545454" d="M 63.957031 35.339844 C 69.699219 32.367188 76.398438 31.683594 82.765625 31.527344 C 89.621094 31.351562 96.460938 31.800781 103.277344 32.425781 C 110.171875 33.070312 117.046875 33.871094 123.960938 34.359375 C 127.398438 34.597656 130.859375 34.734375 134.316406 34.753906 C 137.558594 34.773438 140.839844 34.792969 144.082031 34.398438 C 147.34375 34.007812 150.605469 33.089844 153.105469 30.84375 C 155.292969 28.871094 156.875 25.863281 156.269531 22.875 C 156.015625 21.625 154.0625 21.917969 154.0625 23.167969 C 154.082031 25.824219 153.046875 28.070312 150.996094 29.75 C 148.691406 31.644531 145.605469 32.308594 142.734375 32.660156 C 136.210938 33.421875 129.570312 33.167969 123.023438 32.71875 C 109.742188 31.78125 96.5 29.613281 83.15625 30.082031 C 76.359375 30.296875 69.484375 31.078125 63.566406 34.675781 C 63.136719 34.929688 63.507812 35.574219 63.957031 35.339844 Z M 63.957031 35.339844 " fill-opacity="1" fill-rule="nonzero"/></g><path fill="#545454" d="M 66.535156 31 C 72.355469 28.871094 78.371094 28.363281 84.523438 28.324219 C 84.855469 28.324219 84.972656 27.757812 84.601562 27.71875 C 78.449219 26.800781 72.042969 28.265625 66.398438 30.746094 C 66.28125 30.804688 66.378906 31.058594 66.535156 31 Z M 66.535156 31 " fill-opacity="1" fill-rule="nonzero"/><g clip-path="url(#e0b08ec2f2)"><path fill="#545454" d="M 150.820312 34.421875 C 153.066406 34.105469 155.136719 33.03125 156.699219 31.410156 C 157.5 30.589844 158.183594 29.652344 158.652344 28.617188 C 159.042969 27.796875 159.765625 26.332031 159.179688 25.492188 C 158.90625 25.101562 158.4375 25.042969 158.085938 25.355469 C 157.421875 25.921875 157.519531 27.210938 157.246094 28.03125 C 156.933594 28.96875 156.484375 29.847656 155.917969 30.648438 C 154.648438 32.386719 152.832031 33.65625 150.761719 34.222656 C 150.625 34.242188 150.683594 34.441406 150.820312 34.421875 Z M 150.820312 34.421875 " fill-opacity="1" fill-rule="nonzero"/></g></svg>